<svg width="117" height="34" viewBox="0 0 117 34" fill="none" xmlns="http://www.w3.org/2000/svg">
<path d="M105.587 21.2419H104.37L104.892 16.5635H100.391L99.8759 21.2419H98.6591L99.7982 10.9899H101.009L100.5 15.5898H105.001L105.509 10.9899H106.72L105.587 21.2419Z" fill="black" fill-opacity="0.5"/>
<path d="M116.235 15.3962C116.235 16.2691 116.114 17.0644 115.871 17.7819C115.629 18.5003 115.294 19.1148 114.866 19.6278C114.439 20.1407 113.93 20.5376 113.341 20.8191C112.75 21.1006 112.107 21.2413 111.412 21.2413H108.225L109.364 10.9893H112.545C113.111 10.9893 113.623 11.097 114.081 11.3108C114.538 11.5254 114.925 11.8269 115.243 12.216C115.561 12.6052 115.805 13.0697 115.977 13.6112C116.149 14.1526 116.235 14.7479 116.235 15.3962ZM114.998 15.4247C114.998 14.9094 114.94 14.4448 114.821 14.0295C114.704 13.6142 114.535 13.2628 114.313 12.9743C114.092 12.6859 113.822 12.4644 113.505 12.3091C113.187 12.1537 112.829 12.0768 112.43 12.0768H110.459L109.558 20.1607H111.529C112.043 20.1607 112.513 20.0523 112.939 19.8354C113.364 19.6185 113.728 19.3063 114.033 18.8979C114.338 18.4895 114.575 17.9942 114.745 17.4097C114.914 16.826 114.998 16.1638 114.998 15.4247Z" fill="black" fill-opacity="0.5"/>
<path d="M44.1106 18.5445C44.1614 18.5445 44.2137 18.5553 44.2644 18.5768C44.316 18.5983 44.3659 18.6353 44.4121 18.6876L45.275 19.6966C44.8974 20.245 44.4244 20.6587 43.8553 20.9379C43.2861 21.2171 42.6139 21.3563 41.8364 21.3563C41.1242 21.3563 40.4859 21.2217 39.9214 20.9518C39.3568 20.6826 38.8785 20.3103 38.4855 19.8358C38.0925 19.3613 37.7918 18.7983 37.581 18.1476C37.3711 17.4962 37.2657 16.7894 37.2657 16.0265C37.2657 15.2489 37.3857 14.5352 37.6264 13.8838C37.8671 13.2324 38.2025 12.6709 38.6347 12.1987C39.0662 11.7265 39.5814 11.3596 40.1829 11.0974C40.7835 10.8351 41.4472 10.7036 42.1725 10.7036C42.5247 10.7036 42.8562 10.7382 43.1677 10.8074C43.4784 10.8767 43.7691 10.972 44.0398 11.0935C44.3106 11.2151 44.5598 11.3612 44.7874 11.5296C45.0151 11.6988 45.2166 11.8865 45.3927 12.0911L44.6582 13.1855C44.6105 13.2524 44.5551 13.3131 44.4905 13.3677C44.4267 13.4224 44.3367 13.45 44.2198 13.45C44.1421 13.45 44.0698 13.4316 44.0014 13.3931C43.9322 13.3547 43.8591 13.3085 43.7822 13.2532C43.7053 13.1978 43.6207 13.1393 43.5284 13.0747C43.4361 13.0109 43.3261 12.9509 43.2 12.8963C43.0731 12.8417 42.9254 12.7948 42.7555 12.7563C42.5855 12.7186 42.3871 12.6994 42.1602 12.6994C41.7649 12.6994 41.4049 12.7771 41.0788 12.9317C40.752 13.087 40.4728 13.3085 40.2382 13.5969C40.0044 13.8853 39.8222 14.2353 39.6906 14.6452C39.5599 15.0551 39.4945 15.5158 39.4945 16.0257C39.4945 16.5602 39.5599 17.0348 39.6906 17.4493C39.8222 17.8646 39.9998 18.2138 40.2252 18.4976C40.4505 18.7814 40.7135 18.9975 41.0135 19.1452C41.3142 19.2928 41.6365 19.3674 41.9795 19.3674C42.1771 19.3674 42.3571 19.3567 42.5201 19.3351C42.6832 19.3136 42.8347 19.2767 42.9747 19.2244C43.1139 19.1721 43.2469 19.1036 43.3738 19.0206C43.5007 18.9375 43.6284 18.8337 43.7568 18.7091C43.8083 18.6614 43.8645 18.6222 43.9245 18.5914C43.9845 18.5607 44.046 18.5445 44.1106 18.5445Z" fill="black" fill-opacity="0.5"/>
<path d="M55.8469 16.0254C55.8469 16.7791 55.73 17.4805 55.4962 18.1288C55.2616 18.7772 54.9332 19.3417 54.5079 19.8209C54.0826 20.3 53.5703 20.6753 52.972 20.9476C52.3736 21.2198 51.7091 21.3552 50.9793 21.3552C50.2494 21.3552 49.5849 21.2191 48.9827 20.9476C48.382 20.6753 47.8683 20.3 47.4407 19.8209C47.0138 19.3409 46.6839 18.7772 46.4494 18.1288C46.2155 17.4805 46.0986 16.7791 46.0986 16.0254C46.0986 15.2724 46.2155 14.571 46.4494 13.9227C46.6839 13.2743 47.0138 12.7114 47.4407 12.2345C47.8683 11.7577 48.382 11.3831 48.9827 11.1117C49.5841 10.8394 50.2486 10.704 50.9793 10.704C51.7099 10.704 52.3736 10.8409 52.972 11.1155C53.5703 11.3901 54.0826 11.7654 54.5079 12.2422C54.9332 12.7191 55.2616 13.282 55.4962 13.9304C55.73 14.578 55.8469 15.2771 55.8469 16.0254ZM53.6196 16.0254C53.6196 15.5109 53.5596 15.0471 53.4396 14.6341C53.3196 14.2219 53.1466 13.8719 52.9212 13.5858C52.6959 13.2997 52.4198 13.0805 52.0937 12.9283C51.7676 12.7752 51.3961 12.6991 50.9801 12.6991C50.5594 12.6991 50.1848 12.7752 49.8564 12.9283C49.528 13.0805 49.2511 13.2997 49.0258 13.5858C48.8004 13.8719 48.6274 14.2219 48.5074 14.6341C48.3874 15.0471 48.3274 15.5109 48.3274 16.0254C48.3274 16.5453 48.3874 17.0114 48.5074 17.4244C48.6274 17.8366 48.8004 18.1865 49.0258 18.4726C49.2511 18.7587 49.528 18.9772 49.8564 19.1271C50.1848 19.2771 50.5594 19.3525 50.9801 19.3525C51.3961 19.3525 51.7676 19.2771 52.0937 19.1271C52.4198 18.9772 52.6959 18.7587 52.9212 18.4726C53.1466 18.1865 53.3196 17.8366 53.4396 17.4244C53.5596 17.0114 53.6196 16.5461 53.6196 16.0254Z" fill="black" fill-opacity="0.5"/>
<path d="M62.6011 17.0415C62.681 17.2368 62.7564 17.4375 62.8295 17.6429C62.9033 17.4329 62.9795 17.2283 63.0617 17.0307C63.1433 16.833 63.2271 16.6408 63.3125 16.4539L65.7213 11.1825C65.7643 11.0918 65.8074 11.0218 65.8528 10.9718C65.8981 10.9218 65.9481 10.8849 66.0043 10.8603C66.0597 10.8364 66.1227 10.8249 66.1943 10.8249C66.265 10.8249 66.3473 10.8249 66.4419 10.8249H68.1024V21.2407H66.1843V15.2456C66.1843 14.9549 66.1973 14.6396 66.2227 14.3012L63.7378 19.6594C63.6601 19.8263 63.5571 19.9525 63.4255 20.0386C63.2948 20.124 63.1463 20.167 62.9787 20.167H62.6818C62.5141 20.167 62.3657 20.124 62.2342 20.0386C62.1035 19.9525 61.9996 19.8263 61.9227 19.6594L59.4247 14.2935C59.4409 14.4604 59.4539 14.6265 59.4632 14.7903C59.4716 14.9549 59.4763 15.1064 59.4763 15.2449V21.2399H57.5574V10.8249H59.2186C59.3132 10.8249 59.3955 10.8249 59.4663 10.8249C59.5378 10.8249 59.6009 10.8372 59.6562 10.8603C59.7116 10.8841 59.7631 10.9218 59.8077 10.9718C59.8523 11.0218 59.8962 11.0925 59.9392 11.1825L62.3542 16.4746C62.4388 16.6569 62.5218 16.8453 62.6011 17.0415Z" fill="black" fill-opacity="0.5"/>
<path d="M76.3625 10.8179V12.6776H72.5124V15.1102H75.4611V16.8984H72.5124V19.381H76.3625V21.2407H70.3228V10.8179H76.3625Z" fill="black" fill-opacity="0.5"/>
<path d="M86.7545 16.0255C86.7545 16.7792 86.6384 17.4744 86.4038 18.1105C86.17 18.7473 85.8408 19.2979 85.4155 19.7632C84.991 20.2278 84.4787 20.5908 83.8804 20.8507C83.282 21.1107 82.6168 21.2407 81.8877 21.2407H78.243V10.8179H81.8877C82.6168 10.8179 83.282 10.9487 83.8804 11.2109C84.4787 11.4732 84.991 11.8362 85.4155 12.2984C85.8408 12.7614 86.17 13.3106 86.4038 13.9474C86.6376 14.5842 86.7545 15.2771 86.7545 16.0255ZM84.5264 16.0255C84.5264 15.5109 84.4664 15.0456 84.3465 14.6311C84.2265 14.2158 84.0534 13.8643 83.8281 13.5759C83.6028 13.2875 83.3274 13.0652 83.0013 12.9106C82.6744 12.7553 82.3037 12.6784 81.8877 12.6784H80.4318V19.3818H81.8877C82.3037 19.3818 82.6744 19.3041 83.0013 19.1495C83.3274 18.9941 83.6028 18.7726 83.8281 18.4842C84.0534 18.1958 84.2265 17.8436 84.3465 17.429C84.4664 17.0145 84.5264 16.5461 84.5264 16.0255Z" fill="black" fill-opacity="0.5"/>
<path d="M92.4057 17.2774V21.2406H90.2299V17.2774L86.8297 10.8178H88.7486C88.937 10.8178 89.087 10.8663 89.1993 10.964C89.3116 11.0616 89.4016 11.187 89.47 11.3393L90.7967 14.3726C90.9044 14.6156 91.0029 14.8402 91.0928 15.0448C91.1828 15.2501 91.2628 15.4524 91.332 15.6531C91.3958 15.4478 91.4735 15.2432 91.5635 15.0378C91.6535 14.8325 91.7504 14.611 91.8534 14.3726L93.167 11.3393C93.1924 11.277 93.2278 11.2154 93.2732 11.1531C93.3186 11.0909 93.3701 11.0355 93.4278 10.9847C93.4854 10.9347 93.5524 10.894 93.6277 10.8632C93.7031 10.8317 93.7854 10.8163 93.8754 10.8163H95.8073L92.4057 17.2774Z" fill="black" fill-opacity="0.5"/>
<path d="M10.4429 33.0397V11.9996L29.9901 22.5193L10.4429 33.0397Z" fill="black" fill-opacity="0.5"/>
<path d="M0.669189 27.7869V6.74762L20.2164 17.2673L0.669189 27.7869Z" fill="#332E2E"/>
<path d="M10.4429 22.5192V1.47998L29.9901 11.9996L10.4429 22.5192Z" stroke="black" stroke-opacity="0.5" stroke-width="1.0221" stroke-miterlimit="10"/>
</svg>
