<svg width="71" height="59" viewBox="0 0 71 59" fill="none" xmlns="http://www.w3.org/2000/svg">
<path d="M57.2598 0.739184C53.5628 0.739184 50.3699 2.08356 47.6811 4.77232C44.9924 7.62913 43.648 10.822 43.648 14.351C43.648 17.88 44.8243 20.9889 47.177 23.6777C49.3616 26.3664 52.0504 27.7948 55.2433 27.9629C54.7391 32.3321 53.2267 36.0292 50.706 39.054C48.1853 42.0789 44.5722 45.2718 39.8669 48.6327L45.4125 58.2114C52.4705 54.5144 58.5202 48.6327 63.5616 40.5664C68.435 32.6682 70.8717 24.686 70.8717 16.6197C70.8717 11.9144 69.6113 8.04925 67.0906 5.0244C64.4018 2.16759 61.1249 0.739184 57.2598 0.739184ZM17.9367 0.739181C14.2397 0.73918 11.0468 2.08356 8.35801 4.77231C5.5012 7.62913 4.0728 10.822 4.0728 14.351C4.0728 17.712 5.24913 20.7368 7.6018 23.4256C9.78641 26.1143 12.3912 27.6268 15.416 27.9629C15.0799 32.3321 13.7355 36.0292 11.3829 39.054C8.86215 42.2469 5.24912 45.4398 0.543794 48.6327L5.8373 58.2114C13.0633 54.5144 19.113 48.6327 23.9864 40.5664C28.8598 32.6682 31.2965 24.686 31.2965 16.6197C31.2965 12.0824 30.0361 8.30133 27.5154 5.27647C24.8267 2.25161 21.6338 0.739181 17.9367 0.739181Z" fill="#F7F7FB"/>
</svg>
