<svg width="14" height="17" viewBox="0 0 14 17" fill="none" xmlns="http://www.w3.org/2000/svg">
<path fill-rule="evenodd" clip-rule="evenodd" d="M6.99988 1.66257C5.55676 1.66257 4.17274 2.23585 3.15229 3.2563C2.13185 4.27674 1.55857 5.66076 1.55857 7.10388C1.55857 9.21107 2.9296 11.2558 4.43291 12.8426C5.17066 13.6213 5.91071 14.2588 6.46709 14.7019C6.67416 14.8668 6.85502 15.0041 6.99988 15.1112C7.14474 15.0041 7.3256 14.8668 7.53267 14.7019C8.08905 14.2588 8.8291 13.6213 9.56685 12.8426C11.0702 11.2558 12.4412 9.21107 12.4412 7.10388C12.4412 5.66076 11.8679 4.27674 10.8475 3.2563C9.82702 2.23585 8.44301 1.66257 6.99988 1.66257ZM6.99988 15.946C6.62259 16.5119 6.62242 16.5118 6.62222 16.5117L6.62028 16.5104L6.61575 16.5074L6.60016 16.4968C6.58692 16.4878 6.56803 16.4749 6.54387 16.4582C6.49556 16.4247 6.42614 16.376 6.33862 16.3128C6.16365 16.1864 5.91594 16.0019 5.61971 15.766C5.02831 15.2951 4.238 14.6148 3.44538 13.7782C1.88795 12.1342 0.198242 9.75784 0.198242 7.10388C0.198242 5.29998 0.914841 3.56995 2.1904 2.2944C3.46595 1.01885 5.19597 0.302246 6.99988 0.302246C8.80379 0.302246 10.5338 1.01885 11.8094 2.2944C13.0849 3.56995 13.8015 5.29998 13.8015 7.10388C13.8015 9.75784 12.1118 12.1342 10.5544 13.7782C9.76176 14.6148 8.97145 15.2951 8.38005 15.766C8.08382 16.0019 7.83611 16.1864 7.66114 16.3128C7.57362 16.376 7.5042 16.4247 7.45589 16.4582C7.43173 16.4749 7.41284 16.4878 7.3996 16.4968L7.38401 16.5074L7.37948 16.5104L7.37804 16.5114C7.37785 16.5115 7.37717 16.5119 6.99988 15.946ZM6.99988 15.946L7.37717 16.5119C7.1487 16.6643 6.85069 16.664 6.62222 16.5117L6.99988 15.946Z" fill="black"/>
<path fill-rule="evenodd" clip-rule="evenodd" d="M6.99995 5.74363C6.24866 5.74363 5.63962 6.35267 5.63962 7.10396C5.63962 7.85524 6.24866 8.46428 6.99995 8.46428C7.75124 8.46428 8.36028 7.85524 8.36028 7.10396C8.36028 6.35267 7.75124 5.74363 6.99995 5.74363ZM4.2793 7.10396C4.2793 5.60138 5.49738 4.3833 6.99995 4.3833C8.50253 4.3833 9.72061 5.60138 9.72061 7.10396C9.72061 8.60653 8.50253 9.82461 6.99995 9.82461C5.49738 9.82461 4.2793 8.60653 4.2793 7.10396Z" fill="black"/>
</svg>
